<?xml version="1.0" encoding="UTF-8" standalone="no"?>
<svg
   xmlns:dc="http://purl.org/dc/elements/1.1/"
   xmlns:cc="http://creativecommons.org/ns#"
   xmlns:rdf="http://www.w3.org/1999/02/22-rdf-syntax-ns#"
   xmlns:svg="http://www.w3.org/2000/svg"
   xmlns="http://www.w3.org/2000/svg"
   xmlns:sodipodi="http://sodipodi.sourceforge.net/DTD/sodipodi-0.dtd"
   xmlns:inkscape="http://www.inkscape.org/namespaces/inkscape"
   height="60px"
   version="1.1"
   viewBox="0 0 60 60"
   width="60px"
   id="svg24"
   inkscape:version="0.91 r13725"
   sodipodi:docname="linkedin_beige.svg">
  <metadata
     id="metadata44">
    <rdf:RDF>
      <cc:Work
         rdf:about="">
        <dc:format>image/svg+xml</dc:format>
        <dc:type
           rdf:resource="http://purl.org/dc/dcmitype/StillImage" />
        <dc:title></dc:title>
      </cc:Work>
    </rdf:RDF>
  </metadata>
  <sodipodi:namedview
     pagecolor="#ffffff"
     bordercolor="#666666"
     borderopacity="1"
     objecttolerance="10"
     gridtolerance="10"
     guidetolerance="10"
     inkscape:pageopacity="0"
     inkscape:pageshadow="2"
     inkscape:window-width="1215"
     inkscape:window-height="776"
     id="namedview42"
     showgrid="false"
     inkscape:zoom="3.9333333"
     inkscape:cx="30"
     inkscape:cy="30"
     inkscape:window-x="65"
     inkscape:window-y="24"
     inkscape:window-maximized="1"
     inkscape:current-layer="social" />
  <desc
     id="desc28" />
  <defs
     id="defs30" />
  <g
     fill="none"
     fill-rule="evenodd"
     id="soical"
     stroke="none"
     stroke-width="1">
    <g
       id="social"
       transform="translate(-773.000000, -138.000000)">
      <g
         id="slices"
         transform="translate(173.000000, 138.000000)" />
      <g
         fill="#346DA6"
         id="hexagon-flat"
         transform="translate(173.000000, 138.000000)"
         style="fill:#f4e3d7">
        <polygon
           id="Polygon-6"
           points="630 0 655.980762 15 655.980762 45 630 60 604.019238 45 604.019238 15 "
           style="fill:#f4e3d7" />
      </g>
      <g
         fill="#000000"
         fill-opacity="0.4"
         id="hexagon-black"
         transform="translate(177.000000, 152.000000)" />
      <g
         fill="#FFFFFF"
         id="icon"
         transform="translate(182.000000, 150.000000)"
         style="fill:#1a1a1a">
        <path
           d="M612.883075,31.8231512 L612.883075,13.5243389 L607.22737,13.5243389 L607.22737,31.8231512 L612.883075,31.8231512 Z M612.883075,7.03821455 C612.849388,5.40065996 611.758016,4.15384615 609.985054,4.15384615 C608.211632,4.15384615 607.052885,5.40065996 607.052885,7.03821455 C607.052885,8.64020234 608.177944,9.92307692 609.917219,9.92307692 L609.950906,9.92307692 C611.758016,9.92307692 612.883075,8.64020234 612.883075,7.03821455 Z M622.110042,31.8231517 L622.110042,21.3973729 C622.110042,20.8394014 622.15037,20.28143 622.314447,19.8836682 C622.763034,18.7682778 623.783956,17.6136637 625.498199,17.6136637 C627.743896,17.6136637 629.152278,18.8881587 629.152278,21.3973727 L629.152278,31.8231516 L634.846154,31.8231517 L634.846154,21.1183872 C634.846154,15.3839878 631.785045,12.715669 627.70191,12.715669 C624.354081,12.715669 622.884572,14.5873593 622.068608,15.861302 L622.109489,13.4139123 L616.425462,13.4139123 C616.507224,15.1657215 616.425462,31.8231516 616.425462,31.8231516 L622.110042,31.8231517 Z"
           id="linkedin"
           style="fill:#1a1a1a" />
      </g>
    </g>
  </g>
</svg>
