<?xml version="1.0" encoding="UTF-8" standalone="no"?>
<svg
   xmlns:dc="http://purl.org/dc/elements/1.1/"
   xmlns:cc="http://creativecommons.org/ns#"
   xmlns:rdf="http://www.w3.org/1999/02/22-rdf-syntax-ns#"
   xmlns:svg="http://www.w3.org/2000/svg"
   xmlns="http://www.w3.org/2000/svg"
   xmlns:sodipodi="http://sodipodi.sourceforge.net/DTD/sodipodi-0.dtd"
   xmlns:inkscape="http://www.inkscape.org/namespaces/inkscape"
   height="60px"
   version="1.1"
   viewBox="0 0 60 60"
   width="60px"
   id="svg68"
   inkscape:version="0.91 r13725"
   sodipodi:docname="tumblr_beige.svg">
  <metadata
     id="metadata88">
    <rdf:RDF>
      <cc:Work
         rdf:about="">
        <dc:format>image/svg+xml</dc:format>
        <dc:type
           rdf:resource="http://purl.org/dc/dcmitype/StillImage" />
        <dc:title></dc:title>
      </cc:Work>
    </rdf:RDF>
  </metadata>
  <sodipodi:namedview
     pagecolor="#ffffff"
     bordercolor="#666666"
     borderopacity="1"
     objecttolerance="10"
     gridtolerance="10"
     guidetolerance="10"
     inkscape:pageopacity="0"
     inkscape:pageshadow="2"
     inkscape:window-width="1215"
     inkscape:window-height="776"
     id="namedview86"
     showgrid="false"
     inkscape:zoom="3.9333333"
     inkscape:cx="30"
     inkscape:cy="30"
     inkscape:window-x="65"
     inkscape:window-y="24"
     inkscape:window-maximized="1"
     inkscape:current-layer="social" />
  <desc
     id="desc72" />
  <defs
     id="defs74" />
  <g
     fill="none"
     fill-rule="evenodd"
     id="soical"
     stroke="none"
     stroke-width="1">
    <g
       id="social"
       transform="translate(-173.000000, -538.000000)">
      <g
         id="slices"
         transform="translate(173.000000, 138.000000)" />
      <g
         fill="#2B394A"
         id="hexagon-flat"
         transform="translate(173.000000, 138.000000)"
         style="fill:#f4e3d7">
        <polygon
           id="Polygon-40"
           points="30 400 55.9807621 415 55.9807621 445 30 460 4.01923789 445 4.01923789 415 "
           style="fill:#f4e3d7" />
      </g>
      <g
         fill="#000000"
         fill-opacity="0.4"
         id="hexagon-black"
         transform="translate(177.000000, 152.000000)" />
      <g
         fill="#FFFFFF"
         id="icon"
         transform="translate(182.000000, 150.000000)"
         style="fill:#1a1a1a">
        <path
           d="M21.0134265,400.971504 L21.0134265,409.923499 L29.1022811,409.923499 L29.1022811,415.690195 L21.0134265,415.690195 L21.0134265,423.830602 C21.0134265,425.819701 21.1192454,427.096928 21.3279232,427.662282 C21.537341,428.226156 21.9273168,428.676811 22.4963708,429.014248 C23.2496829,429.469343 24.1117738,429.69652 25.0833835,429.69652 C26.8068254,429.69652 28.5228673,429.131166 30.2307692,428.001938 L30.2307692,433.412761 C29.9852101,433.529243 29.418626,435.283459 23.5991575,435.283462 C14.1553773,435.283464 14.1553772,428.633152 14.1553772,427.065108 L14.1553773,415.690195 L9.50463867,415.690195 L9.50463867,410.08928 C10.8440245,409.651205 11.7206045,409.108458 12.6744545,408.290766 C13.6297844,407.473075 14.3949363,406.491105 14.9721302,405.344117 C15.5500641,404.19935 15.9474399,402.478357 16.1657376,400.706815 L21.0134265,400.706815 L21.0134265,400.971504 Z"
           id="tumblr"
           style="fill:#1a1a1a" />
      </g>
    </g>
  </g>
</svg>
